<svg xmlns="http://www.w3.org/2000/svg" xmlns:xlink="http://www.w3.org/1999/xlink" width="500" zoomAndPan="magnify" viewBox="0 0 375 374.999991" height="500" preserveAspectRatio="xMidYMid meet" version="1.0"><defs><g/></defs><rect x="-37.5" width="450" fill="#ffffff" y="-37.499999" height="449.999989" fill-opacity="1"/><rect x="-37.5" width="450" fill="#ffffff" y="-37.499999" height="449.999989" fill-opacity="1"/><g fill="#000000" fill-opacity="1"><g transform="translate(37.500002, 178.434555)"><g><path d="M 54.78125 -43.6875 C 54.78125 -39.945312 53.921875 -36.53125 52.203125 -33.4375 C 50.492188 -30.351562 47.863281 -27.863281 44.3125 -25.96875 C 40.769531 -24.070312 36.367188 -23.125 31.109375 -23.125 L 21.375 -23.125 L 21.375 0 L 5.6875 0 L 5.6875 -64.421875 L 31.109375 -64.421875 C 36.242188 -64.421875 40.585938 -63.53125 44.140625 -61.75 C 47.691406 -59.976562 50.351562 -57.53125 52.125 -54.40625 C 53.894531 -51.289062 54.78125 -47.71875 54.78125 -43.6875 Z M 29.921875 -35.609375 C 32.910156 -35.609375 35.140625 -36.3125 36.609375 -37.71875 C 38.078125 -39.125 38.8125 -41.113281 38.8125 -43.6875 C 38.8125 -46.25 38.078125 -48.234375 36.609375 -49.640625 C 35.140625 -51.046875 32.910156 -51.75 29.921875 -51.75 L 21.375 -51.75 L 21.375 -35.609375 Z M 29.921875 -35.609375 "/></g></g></g><g fill="#000000" fill-opacity="1"><g transform="translate(86.038878, 178.434555)"><g><path d="M 21.375 -67.90625 L 21.375 0 L 5.6875 0 L 5.6875 -67.90625 Z M 21.375 -67.90625 "/></g></g></g><g fill="#000000" fill-opacity="1"><g transform="translate(104.389432, 178.434555)"><g><path d="M 2.5625 -25.6875 C 2.5625 -30.957031 3.554688 -35.578125 5.546875 -39.546875 C 7.535156 -43.523438 10.242188 -46.582031 13.671875 -48.71875 C 17.097656 -50.863281 20.921875 -51.9375 25.140625 -51.9375 C 28.753906 -51.9375 31.921875 -51.203125 34.640625 -49.734375 C 37.359375 -48.265625 39.453125 -46.335938 40.921875 -43.953125 L 40.921875 -51.203125 L 56.625 -51.203125 L 56.625 0 L 40.921875 0 L 40.921875 -7.25 C 39.398438 -4.863281 37.273438 -2.9375 34.546875 -1.46875 C 31.828125 0 28.660156 0.734375 25.046875 0.734375 C 20.890625 0.734375 17.097656 -0.347656 13.671875 -2.515625 C 10.242188 -4.691406 7.535156 -7.78125 5.546875 -11.78125 C 3.554688 -15.789062 2.5625 -20.425781 2.5625 -25.6875 Z M 40.921875 -25.609375 C 40.921875 -29.515625 39.832031 -32.597656 37.65625 -34.859375 C 35.488281 -37.128906 32.847656 -38.265625 29.734375 -38.265625 C 26.609375 -38.265625 23.957031 -37.144531 21.78125 -34.90625 C 19.613281 -32.675781 18.53125 -29.601562 18.53125 -25.6875 C 18.53125 -21.78125 19.613281 -18.675781 21.78125 -16.375 C 23.957031 -14.082031 26.609375 -12.9375 29.734375 -12.9375 C 32.847656 -12.9375 35.488281 -14.066406 37.65625 -16.328125 C 39.832031 -18.597656 40.921875 -21.691406 40.921875 -25.609375 Z M 40.921875 -25.609375 "/></g></g></g><g fill="#000000" fill-opacity="1"><g transform="translate(157.974992, 178.434555)"><g><path d="M 36.890625 -51.75 C 42.890625 -51.75 47.675781 -49.804688 51.25 -45.921875 C 54.832031 -42.046875 56.625 -36.710938 56.625 -29.921875 L 56.625 0 L 41.015625 0 L 41.015625 -27.8125 C 41.015625 -31.226562 40.128906 -33.882812 38.359375 -35.78125 C 36.585938 -37.6875 34.203125 -38.640625 31.203125 -38.640625 C 28.203125 -38.640625 25.8125 -37.6875 24.03125 -35.78125 C 22.257812 -33.882812 21.375 -31.226562 21.375 -27.8125 L 21.375 0 L 5.6875 0 L 5.6875 -51.203125 L 21.375 -51.203125 L 21.375 -44.421875 C 22.96875 -46.679688 25.109375 -48.46875 27.796875 -49.78125 C 30.492188 -51.09375 33.523438 -51.75 36.890625 -51.75 Z M 36.890625 -51.75 "/></g></g></g><g fill="#000000" fill-opacity="1"><g transform="translate(211.101759, 178.434555)"><g/></g></g><g fill="#000000" fill-opacity="1"><g transform="translate(221.836408, 178.434555)"><g><path d="M 29 0.734375 C 23.976562 0.734375 19.460938 -0.332031 15.453125 -2.46875 C 11.453125 -4.613281 8.300781 -7.675781 6 -11.65625 C 3.707031 -15.632812 2.5625 -20.285156 2.5625 -25.609375 C 2.5625 -30.867188 3.722656 -35.5 6.046875 -39.5 C 8.378906 -43.507812 11.5625 -46.582031 15.59375 -48.71875 C 19.632812 -50.863281 24.164062 -51.9375 29.1875 -51.9375 C 34.195312 -51.9375 38.71875 -50.863281 42.75 -48.71875 C 46.789062 -46.582031 49.972656 -43.507812 52.296875 -39.5 C 54.628906 -35.5 55.796875 -30.867188 55.796875 -25.609375 C 55.796875 -20.335938 54.617188 -15.695312 52.265625 -11.6875 C 49.910156 -7.6875 46.695312 -4.613281 42.625 -2.46875 C 38.550781 -0.332031 34.007812 0.734375 29 0.734375 Z M 29 -12.84375 C 32 -12.84375 34.550781 -13.941406 36.65625 -16.140625 C 38.769531 -18.347656 39.828125 -21.503906 39.828125 -25.609375 C 39.828125 -29.703125 38.800781 -32.847656 36.75 -35.046875 C 34.695312 -37.253906 32.175781 -38.359375 29.1875 -38.359375 C 26.125 -38.359375 23.582031 -37.269531 21.5625 -35.09375 C 19.539062 -32.925781 18.53125 -29.765625 18.53125 -25.609375 C 18.53125 -21.503906 19.523438 -18.347656 21.515625 -16.140625 C 23.503906 -13.941406 26 -12.84375 29 -12.84375 Z M 29 -12.84375 "/></g></g></g><g fill="#000000" fill-opacity="1"><g transform="translate(271.568147, 178.434555)"><g><path d="M 36.890625 -51.75 C 42.890625 -51.75 47.675781 -49.804688 51.25 -45.921875 C 54.832031 -42.046875 56.625 -36.710938 56.625 -29.921875 L 56.625 0 L 41.015625 0 L 41.015625 -27.8125 C 41.015625 -31.226562 40.128906 -33.882812 38.359375 -35.78125 C 36.585938 -37.6875 34.203125 -38.640625 31.203125 -38.640625 C 28.203125 -38.640625 25.8125 -37.6875 24.03125 -35.78125 C 22.257812 -33.882812 21.375 -31.226562 21.375 -27.8125 L 21.375 0 L 5.6875 0 L 5.6875 -51.203125 L 21.375 -51.203125 L 21.375 -44.421875 C 22.96875 -46.679688 25.109375 -48.46875 27.796875 -49.78125 C 30.492188 -51.09375 33.523438 -51.75 36.890625 -51.75 Z M 36.890625 -51.75 "/></g></g></g><g fill="#000000" fill-opacity="1"><g transform="translate(324.703108, 178.434555)"><g/></g></g><g fill="#000000" fill-opacity="1"><g transform="translate(37.500002, 260.934549)"><g><path d="M 34.234375 -13.3125 L 34.234375 0 L 26.25 0 C 20.550781 0 16.113281 -1.390625 12.9375 -4.171875 C 9.757812 -6.953125 8.171875 -11.492188 8.171875 -17.796875 L 8.171875 -38.171875 L 1.921875 -38.171875 L 1.921875 -51.203125 L 8.171875 -51.203125 L 8.171875 -63.6875 L 23.859375 -63.6875 L 23.859375 -51.203125 L 34.140625 -51.203125 L 34.140625 -38.171875 L 23.859375 -38.171875 L 23.859375 -17.625 C 23.859375 -16.09375 24.222656 -14.988281 24.953125 -14.3125 C 25.691406 -13.644531 26.914062 -13.3125 28.625 -13.3125 Z M 34.234375 -13.3125 "/></g></g></g><g fill="#000000" fill-opacity="1"><g transform="translate(66.035672, 260.934549)"><g><path d="M 13.578125 -56.53125 C 10.828125 -56.53125 8.578125 -57.335938 6.828125 -58.953125 C 5.085938 -60.578125 4.21875 -62.582031 4.21875 -64.96875 C 4.21875 -67.414062 5.085938 -69.445312 6.828125 -71.0625 C 8.578125 -72.6875 10.828125 -73.5 13.578125 -73.5 C 16.273438 -73.5 18.492188 -72.6875 20.234375 -71.0625 C 21.972656 -69.445312 22.84375 -67.414062 22.84375 -64.96875 C 22.84375 -62.582031 21.972656 -60.578125 20.234375 -58.953125 C 18.492188 -57.335938 16.273438 -56.53125 13.578125 -56.53125 Z M 21.375 -51.203125 L 21.375 0 L 5.6875 0 L 5.6875 -51.203125 Z M 21.375 -51.203125 "/></g></g></g><g fill="#000000" fill-opacity="1"><g transform="translate(84.386226, 260.934549)"><g><path d="M 71.03125 -51.75 C 77.382812 -51.75 82.441406 -49.820312 86.203125 -45.96875 C 89.972656 -42.113281 91.859375 -36.765625 91.859375 -29.921875 L 91.859375 0 L 76.25 0 L 76.25 -27.8125 C 76.25 -31.113281 75.378906 -33.664062 73.640625 -35.46875 C 71.898438 -37.269531 69.5 -38.171875 66.4375 -38.171875 C 63.375 -38.171875 60.972656 -37.269531 59.234375 -35.46875 C 57.492188 -33.664062 56.625 -31.113281 56.625 -27.8125 L 56.625 0 L 41.015625 0 L 41.015625 -27.8125 C 41.015625 -31.113281 40.140625 -33.664062 38.390625 -35.46875 C 36.648438 -37.269531 34.253906 -38.171875 31.203125 -38.171875 C 28.140625 -38.171875 25.734375 -37.269531 23.984375 -35.46875 C 22.242188 -33.664062 21.375 -31.113281 21.375 -27.8125 L 21.375 0 L 5.6875 0 L 5.6875 -51.203125 L 21.375 -51.203125 L 21.375 -44.78125 C 22.96875 -46.925781 25.046875 -48.625 27.609375 -49.875 C 30.179688 -51.125 33.09375 -51.75 36.34375 -51.75 C 40.195312 -51.75 43.632812 -50.921875 46.65625 -49.265625 C 49.6875 -47.617188 52.0625 -45.269531 53.78125 -42.21875 C 55.550781 -45.03125 57.960938 -47.320312 61.015625 -49.09375 C 64.078125 -50.863281 67.414062 -51.75 71.03125 -51.75 Z M 71.03125 -51.75 "/></g></g></g><g fill="#000000" fill-opacity="1"><g transform="translate(172.839757, 260.934549)"><g><path d="M 53.953125 -26.421875 C 53.953125 -24.953125 53.863281 -23.425781 53.6875 -21.84375 L 18.171875 -21.84375 C 18.410156 -18.65625 19.429688 -16.21875 21.234375 -14.53125 C 23.046875 -12.851562 25.265625 -12.015625 27.890625 -12.015625 C 31.804688 -12.015625 34.53125 -13.671875 36.0625 -16.984375 L 52.765625 -16.984375 C 51.910156 -13.609375 50.363281 -10.578125 48.125 -7.890625 C 45.894531 -5.203125 43.097656 -3.09375 39.734375 -1.5625 C 36.367188 -0.03125 32.609375 0.734375 28.453125 0.734375 C 23.429688 0.734375 18.960938 -0.332031 15.046875 -2.46875 C 11.128906 -4.613281 8.066406 -7.675781 5.859375 -11.65625 C 3.660156 -15.632812 2.5625 -20.285156 2.5625 -25.609375 C 2.5625 -30.929688 3.644531 -35.578125 5.8125 -39.546875 C 7.988281 -43.523438 11.035156 -46.582031 14.953125 -48.71875 C 18.867188 -50.863281 23.367188 -51.9375 28.453125 -51.9375 C 33.398438 -51.9375 37.800781 -50.894531 41.65625 -48.8125 C 45.507812 -46.738281 48.519531 -43.773438 50.6875 -39.921875 C 52.863281 -36.066406 53.953125 -31.566406 53.953125 -26.421875 Z M 37.90625 -30.5625 C 37.90625 -33.25 36.984375 -35.390625 35.140625 -36.984375 C 33.304688 -38.578125 31.015625 -39.375 28.265625 -39.375 C 25.628906 -39.375 23.410156 -38.609375 21.609375 -37.078125 C 19.804688 -35.546875 18.691406 -33.375 18.265625 -30.5625 Z M 37.90625 -30.5625 "/></g></g></g></svg>