<svg xmlns="http://www.w3.org/2000/svg" xmlns:xlink="http://www.w3.org/1999/xlink" width="500" zoomAndPan="magnify" viewBox="0 0 375 374.999991" height="500" preserveAspectRatio="xMidYMid meet" version="1.0"><defs><g/><clipPath id="fb56ccbefd"><path d="M 251.316406 196.304688 L 319.566406 196.304688 L 319.566406 264.554688 L 251.316406 264.554688 Z M 251.316406 196.304688 " clip-rule="nonzero"/></clipPath></defs><rect x="-37.5" width="450" fill="#ffffff" y="-37.499999" height="449.999989" fill-opacity="1"/><rect x="-37.5" width="450" fill="#ffffff" y="-37.499999" height="449.999989" fill-opacity="1"/><g fill="#000000" fill-opacity="1"><g transform="translate(37.500002, 178.434538)"><g><path d="M 54.78125 -43.6875 C 54.78125 -39.945312 53.921875 -36.53125 52.203125 -33.4375 C 50.492188 -30.351562 47.863281 -27.863281 44.3125 -25.96875 C 40.769531 -24.070312 36.367188 -23.125 31.109375 -23.125 L 21.375 -23.125 L 21.375 0 L 5.6875 0 L 5.6875 -64.421875 L 31.109375 -64.421875 C 36.242188 -64.421875 40.585938 -63.53125 44.140625 -61.75 C 47.691406 -59.976562 50.351562 -57.53125 52.125 -54.40625 C 53.894531 -51.289062 54.78125 -47.71875 54.78125 -43.6875 Z M 29.921875 -35.609375 C 32.910156 -35.609375 35.140625 -36.3125 36.609375 -37.71875 C 38.078125 -39.125 38.8125 -41.113281 38.8125 -43.6875 C 38.8125 -46.25 38.078125 -48.234375 36.609375 -49.640625 C 35.140625 -51.046875 32.910156 -51.75 29.921875 -51.75 L 21.375 -51.75 L 21.375 -35.609375 Z M 29.921875 -35.609375 "/></g></g></g><g fill="#000000" fill-opacity="1"><g transform="translate(86.038878, 178.434538)"><g><path d="M 21.375 -67.90625 L 21.375 0 L 5.6875 0 L 5.6875 -67.90625 Z M 21.375 -67.90625 "/></g></g></g><g fill="#000000" fill-opacity="1"><g transform="translate(104.389432, 178.434538)"><g><path d="M 2.5625 -25.6875 C 2.5625 -30.957031 3.554688 -35.578125 5.546875 -39.546875 C 7.535156 -43.523438 10.242188 -46.582031 13.671875 -48.71875 C 17.097656 -50.863281 20.921875 -51.9375 25.140625 -51.9375 C 28.753906 -51.9375 31.921875 -51.203125 34.640625 -49.734375 C 37.359375 -48.265625 39.453125 -46.335938 40.921875 -43.953125 L 40.921875 -51.203125 L 56.625 -51.203125 L 56.625 0 L 40.921875 0 L 40.921875 -7.25 C 39.398438 -4.863281 37.273438 -2.9375 34.546875 -1.46875 C 31.828125 0 28.660156 0.734375 25.046875 0.734375 C 20.890625 0.734375 17.097656 -0.347656 13.671875 -2.515625 C 10.242188 -4.691406 7.535156 -7.78125 5.546875 -11.78125 C 3.554688 -15.789062 2.5625 -20.425781 2.5625 -25.6875 Z M 40.921875 -25.609375 C 40.921875 -29.515625 39.832031 -32.597656 37.65625 -34.859375 C 35.488281 -37.128906 32.847656 -38.265625 29.734375 -38.265625 C 26.609375 -38.265625 23.957031 -37.144531 21.78125 -34.90625 C 19.613281 -32.675781 18.53125 -29.601562 18.53125 -25.6875 C 18.53125 -21.78125 19.613281 -18.675781 21.78125 -16.375 C 23.957031 -14.082031 26.609375 -12.9375 29.734375 -12.9375 C 32.847656 -12.9375 35.488281 -14.066406 37.65625 -16.328125 C 39.832031 -18.597656 40.921875 -21.691406 40.921875 -25.609375 Z M 40.921875 -25.609375 "/></g></g></g><g fill="#000000" fill-opacity="1"><g transform="translate(157.974992, 178.434538)"><g><path d="M 36.890625 -51.75 C 42.890625 -51.75 47.675781 -49.804688 51.25 -45.921875 C 54.832031 -42.046875 56.625 -36.710938 56.625 -29.921875 L 56.625 0 L 41.015625 0 L 41.015625 -27.8125 C 41.015625 -31.226562 40.128906 -33.882812 38.359375 -35.78125 C 36.585938 -37.6875 34.203125 -38.640625 31.203125 -38.640625 C 28.203125 -38.640625 25.8125 -37.6875 24.03125 -35.78125 C 22.257812 -33.882812 21.375 -31.226562 21.375 -27.8125 L 21.375 0 L 5.6875 0 L 5.6875 -51.203125 L 21.375 -51.203125 L 21.375 -44.421875 C 22.96875 -46.679688 25.109375 -48.46875 27.796875 -49.78125 C 30.492188 -51.09375 33.523438 -51.75 36.890625 -51.75 Z M 36.890625 -51.75 "/></g></g></g><g fill="#000000" fill-opacity="1"><g transform="translate(211.101759, 178.434538)"><g/></g></g><g fill="#000000" fill-opacity="1"><g transform="translate(221.836408, 178.434538)"><g><path d="M 29 0.734375 C 23.976562 0.734375 19.460938 -0.332031 15.453125 -2.46875 C 11.453125 -4.613281 8.300781 -7.675781 6 -11.65625 C 3.707031 -15.632812 2.5625 -20.285156 2.5625 -25.609375 C 2.5625 -30.867188 3.722656 -35.5 6.046875 -39.5 C 8.378906 -43.507812 11.5625 -46.582031 15.59375 -48.71875 C 19.632812 -50.863281 24.164062 -51.9375 29.1875 -51.9375 C 34.195312 -51.9375 38.71875 -50.863281 42.75 -48.71875 C 46.789062 -46.582031 49.972656 -43.507812 52.296875 -39.5 C 54.628906 -35.5 55.796875 -30.867188 55.796875 -25.609375 C 55.796875 -20.335938 54.617188 -15.695312 52.265625 -11.6875 C 49.910156 -7.6875 46.695312 -4.613281 42.625 -2.46875 C 38.550781 -0.332031 34.007812 0.734375 29 0.734375 Z M 29 -12.84375 C 32 -12.84375 34.550781 -13.941406 36.65625 -16.140625 C 38.769531 -18.347656 39.828125 -21.503906 39.828125 -25.609375 C 39.828125 -29.703125 38.800781 -32.847656 36.75 -35.046875 C 34.695312 -37.253906 32.175781 -38.359375 29.1875 -38.359375 C 26.125 -38.359375 23.582031 -37.269531 21.5625 -35.09375 C 19.539062 -32.925781 18.53125 -29.765625 18.53125 -25.609375 C 18.53125 -21.503906 19.523438 -18.347656 21.515625 -16.140625 C 23.503906 -13.941406 26 -12.84375 29 -12.84375 Z M 29 -12.84375 "/></g></g></g><g fill="#000000" fill-opacity="1"><g transform="translate(271.568147, 178.434538)"><g><path d="M 36.890625 -51.75 C 42.890625 -51.75 47.675781 -49.804688 51.25 -45.921875 C 54.832031 -42.046875 56.625 -36.710938 56.625 -29.921875 L 56.625 0 L 41.015625 0 L 41.015625 -27.8125 C 41.015625 -31.226562 40.128906 -33.882812 38.359375 -35.78125 C 36.585938 -37.6875 34.203125 -38.640625 31.203125 -38.640625 C 28.203125 -38.640625 25.8125 -37.6875 24.03125 -35.78125 C 22.257812 -33.882812 21.375 -31.226562 21.375 -27.8125 L 21.375 0 L 5.6875 0 L 5.6875 -51.203125 L 21.375 -51.203125 L 21.375 -44.421875 C 22.96875 -46.679688 25.109375 -48.46875 27.796875 -49.78125 C 30.492188 -51.09375 33.523438 -51.75 36.890625 -51.75 Z M 36.890625 -51.75 "/></g></g></g><g fill="#000000" fill-opacity="1"><g transform="translate(324.703108, 178.434538)"><g/></g></g><g fill="#000000" fill-opacity="1"><g transform="translate(37.500002, 260.934532)"><g><path d="M 34.234375 -13.3125 L 34.234375 0 L 26.25 0 C 20.550781 0 16.113281 -1.390625 12.9375 -4.171875 C 9.757812 -6.953125 8.171875 -11.492188 8.171875 -17.796875 L 8.171875 -38.171875 L 1.921875 -38.171875 L 1.921875 -51.203125 L 8.171875 -51.203125 L 8.171875 -63.6875 L 23.859375 -63.6875 L 23.859375 -51.203125 L 34.140625 -51.203125 L 34.140625 -38.171875 L 23.859375 -38.171875 L 23.859375 -17.625 C 23.859375 -16.09375 24.222656 -14.988281 24.953125 -14.3125 C 25.691406 -13.644531 26.914062 -13.3125 28.625 -13.3125 Z M 34.234375 -13.3125 "/></g></g></g><g fill="#000000" fill-opacity="1"><g transform="translate(66.035672, 260.934532)"><g><path d="M 13.578125 -56.53125 C 10.828125 -56.53125 8.578125 -57.335938 6.828125 -58.953125 C 5.085938 -60.578125 4.21875 -62.582031 4.21875 -64.96875 C 4.21875 -67.414062 5.085938 -69.445312 6.828125 -71.0625 C 8.578125 -72.6875 10.828125 -73.5 13.578125 -73.5 C 16.273438 -73.5 18.492188 -72.6875 20.234375 -71.0625 C 21.972656 -69.445312 22.84375 -67.414062 22.84375 -64.96875 C 22.84375 -62.582031 21.972656 -60.578125 20.234375 -58.953125 C 18.492188 -57.335938 16.273438 -56.53125 13.578125 -56.53125 Z M 21.375 -51.203125 L 21.375 0 L 5.6875 0 L 5.6875 -51.203125 Z M 21.375 -51.203125 "/></g></g></g><g fill="#000000" fill-opacity="1"><g transform="translate(84.386226, 260.934532)"><g><path d="M 71.03125 -51.75 C 77.382812 -51.75 82.441406 -49.820312 86.203125 -45.96875 C 89.972656 -42.113281 91.859375 -36.765625 91.859375 -29.921875 L 91.859375 0 L 76.25 0 L 76.25 -27.8125 C 76.25 -31.113281 75.378906 -33.664062 73.640625 -35.46875 C 71.898438 -37.269531 69.5 -38.171875 66.4375 -38.171875 C 63.375 -38.171875 60.972656 -37.269531 59.234375 -35.46875 C 57.492188 -33.664062 56.625 -31.113281 56.625 -27.8125 L 56.625 0 L 41.015625 0 L 41.015625 -27.8125 C 41.015625 -31.113281 40.140625 -33.664062 38.390625 -35.46875 C 36.648438 -37.269531 34.253906 -38.171875 31.203125 -38.171875 C 28.140625 -38.171875 25.734375 -37.269531 23.984375 -35.46875 C 22.242188 -33.664062 21.375 -31.113281 21.375 -27.8125 L 21.375 0 L 5.6875 0 L 5.6875 -51.203125 L 21.375 -51.203125 L 21.375 -44.78125 C 22.96875 -46.925781 25.046875 -48.625 27.609375 -49.875 C 30.179688 -51.125 33.09375 -51.75 36.34375 -51.75 C 40.195312 -51.75 43.632812 -50.921875 46.65625 -49.265625 C 49.6875 -47.617188 52.0625 -45.269531 53.78125 -42.21875 C 55.550781 -45.03125 57.960938 -47.320312 61.015625 -49.09375 C 64.078125 -50.863281 67.414062 -51.75 71.03125 -51.75 Z M 71.03125 -51.75 "/></g></g></g><g fill="#000000" fill-opacity="1"><g transform="translate(172.839757, 260.934532)"><g><path d="M 53.953125 -26.421875 C 53.953125 -24.953125 53.863281 -23.425781 53.6875 -21.84375 L 18.171875 -21.84375 C 18.410156 -18.65625 19.429688 -16.21875 21.234375 -14.53125 C 23.046875 -12.851562 25.265625 -12.015625 27.890625 -12.015625 C 31.804688 -12.015625 34.53125 -13.671875 36.0625 -16.984375 L 52.765625 -16.984375 C 51.910156 -13.609375 50.363281 -10.578125 48.125 -7.890625 C 45.894531 -5.203125 43.097656 -3.09375 39.734375 -1.5625 C 36.367188 -0.03125 32.609375 0.734375 28.453125 0.734375 C 23.429688 0.734375 18.960938 -0.332031 15.046875 -2.46875 C 11.128906 -4.613281 8.066406 -7.675781 5.859375 -11.65625 C 3.660156 -15.632812 2.5625 -20.285156 2.5625 -25.609375 C 2.5625 -30.929688 3.644531 -35.578125 5.8125 -39.546875 C 7.988281 -43.523438 11.035156 -46.582031 14.953125 -48.71875 C 18.867188 -50.863281 23.367188 -51.9375 28.453125 -51.9375 C 33.398438 -51.9375 37.800781 -50.894531 41.65625 -48.8125 C 45.507812 -46.738281 48.519531 -43.773438 50.6875 -39.921875 C 52.863281 -36.066406 53.953125 -31.566406 53.953125 -26.421875 Z M 37.90625 -30.5625 C 37.90625 -33.25 36.984375 -35.390625 35.140625 -36.984375 C 33.304688 -38.578125 31.015625 -39.375 28.265625 -39.375 C 25.628906 -39.375 23.410156 -38.609375 21.609375 -37.078125 C 19.804688 -35.546875 18.691406 -33.375 18.265625 -30.5625 Z M 37.90625 -30.5625 "/></g></g></g><g clip-path="url(#fb56ccbefd)"><path fill="#000000" d="M 319.421875 235.527344 C 319.519531 235.425781 319.574219 235.292969 319.574219 235.15625 L 319.574219 226.3125 C 319.574219 226.175781 319.519531 226.042969 319.421875 225.941406 C 319.320312 225.84375 319.191406 225.789062 319.050781 225.789062 L 295.996094 225.863281 C 298.632812 223.007812 299.160156 222.425781 299.285156 222.28125 L 312.382812 210.476562 C 312.597656 210.285156 312.617188 209.957031 312.429688 209.742188 L 306.605469 203.085938 C 306.417969 202.871094 306.089844 202.847656 305.871094 203.03125 L 292.359375 214.507812 C 292.277344 214.578125 292.191406 214.65625 292.113281 214.738281 C 292.089844 214.761719 291.445312 215.417969 290.355469 216.53125 L 290.09375 196.824219 C 290.089844 196.539062 289.855469 196.304688 289.566406 196.304688 L 280.726562 196.304688 C 280.441406 196.304688 280.207031 196.539062 280.203125 196.824219 L 279.917969 218.332031 L 266.257812 202.910156 C 266.164062 202.804688 266.03125 202.742188 265.894531 202.734375 C 265.753906 202.726562 265.613281 202.777344 265.511719 202.871094 C 265.511719 202.871094 257.464844 210.230469 257.417969 210.277344 C 257.300781 210.382812 257.238281 210.53125 257.246094 210.691406 C 257.25 210.828125 257.3125 210.957031 257.410156 211.046875 C 257.6875 211.332031 264.574219 218.632812 271.234375 225.695312 L 271.464844 225.9375 L 251.839844 226.003906 C 251.550781 226.003906 251.316406 226.238281 251.316406 226.527344 L 251.316406 234.941406 C 251.316406 235.226562 251.550781 235.464844 251.839844 235.464844 L 271.699219 235.527344 L 264.15625 243.207031 C 260.144531 247.296875 257.332031 250.160156 257.304688 250.1875 C 257.210938 250.289062 257.15625 250.425781 257.15625 250.5625 C 257.160156 250.703125 257.21875 250.835938 257.320312 250.933594 L 263.925781 257.230469 C 264.503906 257.785156 264.839844 258.105469 265.046875 258.289062 C 265.074219 258.324219 265.105469 258.359375 265.144531 258.398438 C 265.222656 258.472656 265.316406 258.519531 265.414062 258.535156 C 265.425781 258.539062 265.433594 258.539062 265.441406 258.539062 C 265.597656 258.558594 265.761719 258.507812 265.878906 258.386719 C 265.894531 258.375 265.90625 258.359375 265.917969 258.34375 C 266.234375 257.992188 270.785156 253.085938 276.035156 247.417969 L 279.578125 243.589844 L 279.308594 264.03125 C 279.304688 264.171875 279.359375 264.308594 279.457031 264.40625 C 279.558594 264.507812 279.691406 264.5625 279.832031 264.5625 L 290.460938 264.5625 C 290.601562 264.5625 290.734375 264.507812 290.832031 264.40625 C 290.929688 264.308594 290.984375 264.171875 290.984375 264.03125 L 290.742188 245.820312 L 305.617188 258.632812 C 305.832031 258.820312 306.160156 258.796875 306.351562 258.582031 L 312.226562 251.976562 C 312.417969 251.761719 312.398438 251.4375 312.191406 251.242188 C 312.191406 251.242188 296.296875 236.652344 295.507812 235.929688 C 295.46875 235.878906 295.355469 235.753906 295.222656 235.601562 L 319.054688 235.679688 C 319.199219 235.675781 319.324219 235.625 319.421875 235.527344 Z M 319.421875 235.527344 " fill-opacity="1" fill-rule="nonzero"/></g></svg>